<?xml version="1.0" encoding="utf-8"?>
<!-- Generator: Adobe Illustrator 21.0.0, SVG Export Plug-In . SVG Version: 6.00 Build 0)  -->
<svg version="1.0" id="Layer_1" xmlns="http://www.w3.org/2000/svg" xmlns:xlink="http://www.w3.org/1999/xlink" x="0px" y="0px"  width="120px" height="48px" 
	 viewBox="0 0 120 48" style="enable-background:new 0 0 120 48;" xml:space="preserve">
<style type="text/css">
	.st0{fill:#0059C4;}
	.st1{fill:#001F44;}
	.st2{fill:#001E42;}
</style>
<g>
	<g>
		<path class="st0" d="M56.7,3.6l5.6,3.2c0.2,0.1,0.3,0,0.4-0.1l0.2-0.3c0.1-0.2,0-0.3-0.1-0.4l-5.6-3.2c-0.2-0.1-0.3,0-0.4,0.1
			l-0.2,0.3C56.5,3.3,56.5,3.5,56.7,3.6z"/>
		<path class="st0" d="M51.9,11.9l5.6,3.2c0.2,0.1,0.3,0,0.4-0.1l0.2-0.3c0.1-0.2,0-0.3-0.1-0.4l-5.6-3.2c-0.2-0.1-0.3,0-0.4,0.1
			l-0.2,0.3C51.7,11.6,51.7,11.8,51.9,11.9z"/>
		<path class="st0" d="M71.5,15.9l-11.1-5.8l1.5-2.6c0.1-0.2,0-0.3-0.1-0.4l-5-2.9c-0.2-0.1-0.3,0-0.4,0.1l-3.5,6.1
			c-0.1,0.2,0,0.3,0.1,0.4l5,2.9c0.2,0.1,0.3,0,0.4-0.1l1.5-2.6l10.5,6.7c0.1,0.1,0.3,0,0.4-0.1l0.8-1.4
			C71.7,16.1,71.6,15.9,71.5,15.9z"/>
		<path class="st0" d="M61.2,18.6h-0.7c0.1-0.1,0.1-0.2,0.1-0.4v-0.5c0-0.3-0.2-0.5-0.5-0.5H49.6c-0.3,0-0.5,0.2-0.5,0.5v0.5
			c0,0.1,0.1,0.3,0.1,0.4h-0.7c-0.3,0-0.5,0.2-0.5,0.5v2.1c0,0.3,0.2,0.5,0.5,0.5h12.7c0.3,0,0.5-0.2,0.5-0.5v-2.1
			C61.7,18.9,61.5,18.6,61.2,18.6z M60.5,21.1H49.3c-0.3,0-0.6-0.3-0.6-0.6V20c0-0.3,0.3-0.6,0.6-0.6h11.1c0.3,0,0.6,0.3,0.6,0.6
			l0,0.6C61,20.8,60.8,21.1,60.5,21.1z"/>
	</g>
</g>
<path class="st0" d="M73.1,5.4v14.3h21.4V5.4H73.1z M81.1,17V8.1l6,4.5L81.1,17z"/>
<g>
	<g>
		<path class="st0" d="M110.4,20.6h-1.6V6.3h6.6l-2.8,4.4c-0.1,0.2-0.1,0.5,0.2,0.7c0.1,0.1,0.2,0.1,0.3,0.1c0.2,0,0.3-0.1,0.4-0.2
			l2.4-3.8l2.4,3.8c0.1,0.2,0.4,0.3,0.7,0.2c0.2-0.1,0.3-0.4,0.2-0.7l-2.8-4.4h0c0.4,0,0.7-0.3,0.7-0.7c0-0.4-0.3-0.7-0.7-0.7h-5.5
			c-0.3-0.4-0.8-0.8-1.3-1c-0.1-0.9-0.8-1.5-1.7-1.5c-0.9,0-1.6,0.7-1.7,1.5c-0.5,0.2-1,0.5-1.3,1h-5.5c-0.4,0-0.7,0.3-0.7,0.7
			c0,0.4,0.3,0.7,0.7,0.7h0l-2.8,4.4c-0.1,0.2-0.1,0.5,0.2,0.7c0.1,0.1,0.2,0.1,0.3,0.1c0.2,0,0.3-0.1,0.4-0.2l2.4-3.8l2.4,3.8
			c0.1,0.2,0.4,0.3,0.7,0.2c0.2-0.1,0.3-0.4,0.2-0.7l-2.8-4.4h6.6v14.3h-1.6c-0.9,0-1.7,0.8-1.7,1.7h8.4
			C112.1,21.4,111.3,20.6,110.4,20.6z"/>
		<path class="st0" d="M103.4,12h-7.1c-0.1,0-0.3,0.1-0.3,0.3c0,2.1,1.7,3.8,3.8,3.8c2.1,0,3.8-1.7,3.8-3.8
			C103.7,12.1,103.5,12,103.4,12z"/>
		<path class="st0" d="M119.4,12h-7.1c-0.1,0-0.3,0.1-0.3,0.3c0,2.1,1.7,3.8,3.8,3.8c2.1,0,3.8-1.7,3.8-3.8
			C119.6,12.1,119.5,12,119.4,12z"/>
	</g>
</g>
<g>
	<g>
		<g>
			<path class="st0" d="M37.2,14.6V14c0-0.6-0.5-1.2-1.2-1.2c-0.6,0-1.2,0.5-1.2,1.2v0.5c0,0.6,0.5,1.2,1.2,1.2
				C36.7,15.7,37.2,15.2,37.2,14.6z"/>
			<path class="st0" d="M38,15.2c-0.3,0.8-1,1.5-2,1.5c-0.9,0-1.7-0.6-2-1.5h-8c-0.5,0-1-0.1-1.4-0.3v5.3c0,1,0.9,1.9,1.9,1.9h19.1
				c1,0,1.9-0.9,1.9-1.9v-5.3c-0.4,0.2-0.9,0.3-1.4,0.3L38,15.2L38,15.2z"/>
			<path class="st0" d="M46,5.6h-4.6c-0.3-1.7-1.8-3-3.6-3h-3.6c-1.8,0-3.3,1.3-3.6,3h-4.6c-1.1,0-2,0.9-2,1.9v4.4
				c0,1,0.8,1.9,1.9,1.9h8c0-0.5,0.3-1,0.6-1.4c0,0,0,0,0,0c0.1-0.1,0.2-0.1,0.3-0.2c0,0,0.1,0,0.1-0.1c0.1,0,0.2-0.1,0.2-0.1
				c0.1,0,0.1,0,0.2-0.1c0.1,0,0.1,0,0.2-0.1c0.1,0,0.3,0,0.4,0c0.1,0,0.3,0,0.4,0c0.1,0,0.1,0,0.2,0.1c0.1,0,0.1,0,0.2,0.1
				c0.1,0,0.2,0.1,0.2,0.1c0,0,0.1,0,0.1,0.1c0.1,0.1,0.2,0.1,0.3,0.2c0,0,0,0,0,0c0.4,0.4,0.6,0.8,0.6,1.4h8c1,0,1.9-0.8,1.9-1.9
				V7.5C48,6.5,47.1,5.6,46,5.6z M32.5,5.6c0.2-0.7,0.9-1.3,1.7-1.3h3.6c0.8,0,1.5,0.5,1.7,1.3H32.5z"/>
		</g>
	</g>
</g>
<g>
	<g>
		<path class="st1" d="M110.4,42.6h-1.6V28.3h6.6l-2.8,4.4c-0.1,0.2-0.1,0.5,0.2,0.7c0.1,0.1,0.2,0.1,0.3,0.1c0.2,0,0.3-0.1,0.4-0.2
			l2.4-3.8l2.4,3.8c0.1,0.2,0.4,0.3,0.7,0.2c0.2-0.1,0.3-0.4,0.2-0.7l-2.8-4.4h0c0.4,0,0.7-0.3,0.7-0.7c0-0.4-0.3-0.7-0.7-0.7h-5.5
			c-0.3-0.4-0.8-0.8-1.3-1c-0.1-0.9-0.8-1.5-1.7-1.5c-0.9,0-1.6,0.7-1.7,1.5c-0.5,0.2-1,0.5-1.3,1h-5.5c-0.4,0-0.7,0.3-0.7,0.7
			c0,0.4,0.3,0.7,0.7,0.7h0l-2.8,4.4c-0.1,0.2-0.1,0.5,0.2,0.7c0.1,0.1,0.2,0.1,0.3,0.1c0.2,0,0.3-0.1,0.4-0.2l2.4-3.8l2.4,3.8
			c0.1,0.2,0.4,0.3,0.7,0.2c0.2-0.1,0.3-0.4,0.2-0.7l-2.8-4.4h6.6v14.3h-1.6c-0.9,0-1.7,0.8-1.7,1.7h8.4
			C112.1,43.3,111.3,42.6,110.4,42.6z"/>
		<path class="st1" d="M103.4,33.9h-7.1c-0.1,0-0.3,0.1-0.3,0.3c0,2.1,1.7,3.8,3.8,3.8c2.1,0,3.8-1.7,3.8-3.8
			C103.7,34.1,103.5,33.9,103.4,33.9z"/>
		<path class="st1" d="M119.4,33.9h-7.1c-0.1,0-0.3,0.1-0.3,0.3c0,2.1,1.7,3.8,3.8,3.8c2.1,0,3.8-1.7,3.8-3.8
			C119.6,34.1,119.5,33.9,119.4,33.9z"/>
	</g>
</g>
<path class="st1" d="M73.1,28.4v14.3h21.4V28.4H73.1z M81.1,40v-8.9l6,4.5L81.1,40z"/>
<g>
	<path class="st2" d="M56.8,25.2l5.6,3.2c0.2,0.1,0.3,0,0.4-0.1L63,28c0.1-0.2,0-0.3-0.1-0.4l-5.6-3.2c-0.2-0.1-0.3,0-0.4,0.1
		l-0.2,0.3C56.6,24.9,56.7,25.1,56.8,25.2z"/>
	<path class="st2" d="M52,33.6l5.6,3.2c0.2,0.1,0.3,0,0.4-0.1l0.2-0.3c0.1-0.2,0-0.3-0.1-0.4l-5.6-3.2c-0.2-0.1-0.3,0-0.4,0.1
		l-0.2,0.3C51.8,33.3,51.8,33.5,52,33.6z"/>
	<path class="st2" d="M71.6,37.5l-11.1-5.8l1.5-2.6c0.1-0.2,0-0.3-0.1-0.4l-5-2.9c-0.2-0.1-0.3,0-0.4,0.1L52.9,32
		c-0.1,0.2,0,0.3,0.1,0.4l5,2.9c0.2,0.1,0.3,0,0.4-0.1l1.5-2.6l10.5,6.7c0.1,0.1,0.3,0,0.4-0.1l0.8-1.4
		C71.8,37.7,71.7,37.6,71.6,37.5z"/>
	<path class="st2" d="M61.3,40.3h-0.7c0.1-0.1,0.1-0.2,0.1-0.4v-0.5c0-0.3-0.2-0.5-0.5-0.5H49.7c-0.3,0-0.5,0.2-0.5,0.5v0.5
		c0,0.1,0.1,0.3,0.1,0.4h-0.7c-0.3,0-0.5,0.2-0.5,0.5v2.1c0,0.3,0.2,0.5,0.5,0.5h12.7c0.3,0,0.5-0.2,0.5-0.5v-2.1
		C61.9,40.5,61.6,40.3,61.3,40.3z M60.6,42.7H49.5c-0.3,0-0.6-0.3-0.6-0.6v-0.6c0-0.3,0.3-0.6,0.6-0.6h11.1c0.3,0,0.6,0.3,0.6,0.6
		l0,0.6C61.1,42.5,60.9,42.7,60.6,42.7z"/>
</g>
<g>
	<g>
		<g>
			<path class="st1" d="M37.2,37.3v-0.5c0-0.6-0.5-1.2-1.2-1.2c-0.6,0-1.2,0.5-1.2,1.2v0.5c0,0.6,0.5,1.2,1.2,1.2
				C36.7,38.5,37.2,37.9,37.2,37.3z"/>
			<path class="st1" d="M38,37.9c-0.3,0.8-1,1.5-2,1.5c-0.9,0-1.7-0.6-2-1.5h-8c-0.5,0-1-0.1-1.4-0.3v5.3c0,1,0.9,1.9,1.9,1.9h19.1
				c1,0,1.9-0.9,1.9-1.9v-5.3c-0.4,0.2-0.9,0.3-1.4,0.3L38,37.9L38,37.9z"/>
			<path class="st1" d="M46,28.3h-4.6c-0.3-1.7-1.8-3-3.6-3h-3.6c-1.8,0-3.3,1.3-3.6,3h-4.6c-1.1,0-2,0.9-2,1.9v4.4
				c0,1,0.8,1.9,1.9,1.9h8c0-0.5,0.3-1,0.6-1.4c0,0,0,0,0,0c0.1-0.1,0.2-0.1,0.3-0.2c0,0,0.1,0,0.1-0.1c0.1,0,0.2-0.1,0.2-0.1
				c0.1,0,0.1,0,0.2-0.1c0.1,0,0.1,0,0.2-0.1c0.1,0,0.3,0,0.4,0c0.1,0,0.3,0,0.4,0c0.1,0,0.1,0,0.2,0.1c0.1,0,0.1,0,0.2,0.1
				c0.1,0,0.2,0.1,0.2,0.1c0,0,0.1,0,0.1,0.1c0.1,0.1,0.2,0.1,0.3,0.2c0,0,0,0,0,0c0.4,0.4,0.6,0.8,0.6,1.4h8c1,0,1.9-0.8,1.9-1.9
				v-4.4C48,29.2,47.1,28.3,46,28.3z M32.5,28.3c0.2-0.7,0.9-1.3,1.7-1.3h3.6c0.8,0,1.5,0.5,1.7,1.3H32.5z"/>
		</g>
	</g>
</g>
<path class="st1" d="M21,41.2v-8.3c0.6,0,1.1-0.4,1.3-1c0.2-0.6-0.1-1.2-0.6-1.5l-9.6-6.2c-0.5-0.3-1-0.3-1.5,0L1,30.4
	c-0.5,0.3-0.7,1-0.6,1.5c0.2,0.6,0.7,1,1.3,1v8.3c-0.8,0-1.4,0.6-1.4,1.4v2.1C0.4,45.4,1,46,1.8,46H21c0.8,0,1.4-0.6,1.4-1.4v-2.1
	C22.4,41.8,21.8,41.2,21,41.2z M7.3,41.2H4.5v-8.3h2.8L7.3,41.2L7.3,41.2z M12.8,41.2H10v-8.3h2.8V41.2z M11.4,30.2
	c-0.8,0-1.4-0.6-1.4-1.4c0-0.8,0.6-1.4,1.4-1.4s1.4,0.6,1.4,1.4C12.8,29.6,12.1,30.2,11.4,30.2z M18.3,41.2h-2.8v-8.3h2.8V41.2z"/>
<path class="st0" d="M21,17.7V9.5c0.6,0,1.1-0.4,1.3-1s-0.1-1.2-0.6-1.5l-9.6-6.2c-0.5-0.3-1-0.3-1.5,0L1,6.9
	c-0.5,0.3-0.7,1-0.6,1.5s0.7,1,1.3,1v8.3c-0.8,0-1.4,0.6-1.4,1.4v2.1c0,0.8,0.6,1.4,1.4,1.4H21c0.8,0,1.4-0.6,1.4-1.4v-2.1
	C22.4,18.3,21.8,17.7,21,17.7z M7.3,17.7H4.5V9.5h2.8L7.3,17.7L7.3,17.7z M12.8,17.7H10V9.5h2.8V17.7z M11.4,6.7
	c-0.8,0-1.4-0.6-1.4-1.4C10,4.6,10.6,4,11.4,4s1.4,0.6,1.4,1.4C12.8,6.1,12.1,6.7,11.4,6.7z M18.3,17.7h-2.8V9.5h2.8V17.7z"/>
</svg>
